<?xml version="1.0" standalone="no"?>
<!DOCTYPE svg PUBLIC "-//W3C//DTD SVG 20010904//EN"
 "http://www.w3.org/TR/2001/REC-SVG-20010904/DTD/svg10.dtd">
<svg version="1.0" xmlns="http://www.w3.org/2000/svg"
 width="300.000000pt" height="105.000000pt" viewBox="0 0 300.000000 105.000000"
 preserveAspectRatio="xMidYMid meet">
<metadata>
Created by potrace 1.10, written by Peter Selinger 2001-2011
</metadata>
<g transform="translate(0.000000,105.000000) scale(0.100000,-0.100000)"
fill="#000000" stroke="none">
<path d="M0 525 l0 -525 1495 0 1495 0 0 525 0 525 -1495 0 -1495 0 0 -525z
m1403 433 c9 -7 23 -32 31 -56 14 -40 14 -46 -7 -100 l-22 -57 -3 78 c-3 81
-11 93 -37 53 -28 -42 -39 -136 -28 -221 17 -119 57 -145 84 -54 7 21 16 36
20 33 17 -10 9 -69 -14 -109 -18 -32 -28 -40 -51 -40 -61 0 -92 100 -83 270 7
135 38 215 82 215 6 0 19 -6 28 -12z m806 2 c51 -27 83 -246 63 -426 -13 -115
-34 -167 -69 -172 -12 -2 -30 6 -41 18 -80 86 -80 519 1 575 25 18 24 18 46 5z
m-1432 -8 c46 -29 63 -206 28 -299 l-19 -53 24 -97 c14 -54 26 -103 28 -109 3
-13 -46 -37 -59 -29 -5 4 -9 23 -9 43 0 42 -24 149 -35 160 -9 8 0 -175 10
-200 5 -13 -2 -22 -29 -34 -20 -10 -38 -15 -41 -13 -2 3 0 48 6 100 13 114 7
464 -9 499 -9 21 -11 11 -12 -60 -1 -69 -3 -80 -12 -60 -20 48 -25 55 -47 58
-20 3 -21 0 -21 -87 0 -50 3 -91 8 -91 12 0 28 14 40 35 9 16 11 1 11 -75 -1
-54 -4 -84 -8 -70 -6 23 -12 26 -41 22 -12 -2 -14 -235 -1 -278 8 -28 6 -31
-30 -51 -21 -12 -41 -18 -44 -13 -3 4 0 34 6 65 11 61 6 540 -6 607 l-7 37
129 0 c71 0 134 -4 140 -7z m158 -14 c-4 -13 -10 -115 -12 -228 -4 -171 -2
-208 11 -225 14 -20 15 -19 26 10 13 34 10 419 -4 448 -8 16 3 17 159 17 l167
0 -8 -22 c-12 -35 -17 -382 -6 -422 9 -31 8 -35 -12 -40 -11 -3 -31 -6 -42 -6
-20 0 -21 3 -13 38 12 50 11 403 -1 422 -14 23 -24 -13 -16 -63 l7 -42 -21 34
c-12 18 -23 31 -25 29 -10 -9 -13 -270 -5 -342 5 -44 8 -81 6 -83 -2 -2 -19
-6 -39 -10 l-35 -5 9 50 c5 27 8 126 7 218 -3 165 -3 168 -20 139 l-17 -30 -1
53 c0 57 -16 71 -24 20 -3 -18 -7 -114 -9 -213 -3 -143 -8 -189 -22 -223 -29
-71 -73 -82 -101 -24 -15 31 -19 73 -25 257 -3 121 -10 230 -14 243 -7 21 -5
22 40 22 45 0 47 -1 40 -22z m610 5 c-15 -36 -26 -115 -23 -166 2 -41 7 -53
22 -55 10 -2 23 1 28 6 13 13 11 188 -3 213 -9 17 -5 19 39 19 l50 0 -14 -37
c-16 -45 -19 -350 -5 -401 l10 -32 -40 0 -39 0 4 38 c3 20 8 58 10 85 l6 47
-37 0 -36 0 6 -60 c4 -33 10 -72 13 -85 6 -24 4 -25 -36 -25 -36 0 -41 2 -35
18 4 9 10 90 12 179 3 147 -2 207 -22 256 -6 15 -1 17 45 17 46 0 51 -2 45
-17z m234 -95 c13 -121 38 -306 47 -350 5 -26 3 -28 -29 -28 l-35 0 5 43 c4
37 1 45 -25 71 l-30 28 -7 -66 c-6 -54 -11 -66 -24 -64 -19 4 -19 11 10 248
11 91 18 180 14 198 -6 31 -5 32 28 32 l34 0 12 -112z m157 88 c-6 -23 27
-313 37 -322 5 -5 16 100 26 251 l6 90 38 3 39 3 -8 -33 c-14 -66 2 -459 21
-510 5 -13 1 -15 -27 -9 -37 8 -34 -8 -38 211 -2 100 -11 76 -30 -87 -12 -100
-18 -113 -47 -95 -6 4 -16 60 -23 127 -18 186 -26 198 -34 60 -4 -66 -4 -133
-1 -148 7 -27 6 -28 -21 -21 -16 4 -30 8 -31 8 -1 1 2 31 8 67 6 35 11 146 12
246 l2 183 39 0 c35 0 38 -2 32 -24z m401 -46 c2 -36 9 -92 17 -125 l13 -60 8
48 c4 27 10 83 14 125 6 76 6 77 35 80 26 3 28 1 22 -20 -4 -13 -14 -63 -22
-113 -8 -49 -21 -125 -29 -168 -17 -87 -19 -261 -5 -322 5 -22 7 -41 6 -43 -2
-1 -22 4 -44 13 -40 16 -40 16 -30 53 22 78 -2 361 -48 570 -7 33 -6 33 26 30
l33 -3 4 -65z m-1199 -591 c15 -23 10 -24 -29 -4 -16 9 -27 20 -24 24 8 14 40
2 53 -20z m777 21 c3 -5 -8 -16 -24 -25 -42 -21 -48 -19 -21 10 25 27 35 30
45 15z m-826 -44 c22 -8 67 -33 98 -55 32 -23 83 -58 113 -80 30 -21 64 -41
75 -44 11 -4 2 -5 -20 -3 -25 2 -69 21 -116 48 -115 69 -167 89 -228 89 -41 0
-58 -4 -77 -22 -32 -30 -30 -45 10 -85 34 -34 34 -34 9 -34 -29 0 -83 50 -83
78 0 95 106 147 219 108z m155 -25 c19 -33 19 -33 0 -22 -34 19 -54 38 -54 50
0 24 34 6 54 -28z m566 27 c0 -7 -14 -21 -30 -30 -33 -19 -41 -6 -13 24 19 21
43 24 43 6z m267 -9 c28 -17 53 -61 53 -94 0 -39 -50 -85 -92 -85 -32 0 -33 0
-9 13 13 6 33 24 44 39 l21 28 -20 27 c-51 68 -167 41 -362 -83 -13 -8 -44
-17 -70 -18 -26 -2 -36 -1 -22 1 13 3 73 39 132 81 59 43 127 85 150 95 48 19
141 18 175 -4z m-367 -45 c0 -8 -4 -14 -10 -14 -5 0 -19 -10 -30 -22 l-21 -23
11 30 c6 16 16 35 22 42 12 15 28 8 28 -13z m-380 -3 c18 -35 11 -45 -15 -21
-14 13 -25 27 -25 32 0 16 29 8 40 -11z m250 -157 c0 -2 -9 0 -20 6 -11 6 -20
13 -20 16 0 2 9 0 20 -6 11 -6 20 -13 20 -16z m-130 12 c0 -2 -7 -7 -16 -10
-8 -3 -12 -2 -9 4 6 10 25 14 25 6z"/>
<path d="M2171 862 c-46 -87 -30 -410 21 -420 25 -5 42 117 36 269 -5 118 -16
169 -38 169 -5 0 -14 -8 -19 -18z"/>
<path d="M730 765 c0 -103 5 -120 29 -91 32 38 20 196 -15 196 -11 0 -14 -21
-14 -105z"/>
<path d="M1727 733 c-5 -45 4 -73 24 -73 9 0 0 101 -11 113 -4 5 -10 -13 -13
-40z"/>
</g>
</svg>
